PathFileType	4	(X/Y/Z)	Walk3.trc
DataRate	CameraRate	NumFrames	NumMarkers	Units	OrigDataRate	OrigDataStartFrame	OrigNumFrames
200.000000	200.000000	8	61	mm	200.000000	331	395
Frame#	Times		LFHD		RFHD		CLAV		STRN		LASI		RASI		RACR1		RUA1		RFA1		RWRU		RCAR		LACR1		LUA1		LFA1		LWRU		LCAR		RTH3		RMFC		RTB1		RTB3		RTB4		RMT5		LTH1		LTH3		LTH2		LTH4		LLFC		LTB1		LTB2		LTB4		RTH2		RMT1		RTH4		RMMAL		RLFC		RTH1		RTB2		LBHD		RWRR		LElbow		LWRR		RLMAL		RToe		RCAL		RElbow		LPSI		RBHD		T10		RBack		RPSI		LTB3		LMFC		LLMAL		RElbowM		LElbowM		LCAL		LMT5		LToe		C7		LMT1		LMMAL
			X1	Y1	Z1	X2	Y2	Z2	X3	Y3	Z3	X4	Y4	Z4	X5	Y5	Z5	X6	Y6	Z6	X7	Y7	Z7	X8	Y8	Z8	X9	Y9	Z9	X10	Y10	Z10	X11	Y11	Z11	X12	Y12	Z12	X13	Y13	Z13	X14	Y14	Z14	X15	Y15	Z15	X16	Y16	Z16	X17	Y17	Z17	X18	Y18	Z18	X19	Y19	Z19	X20	Y20	Z20	X21	Y21	Z21	X22	Y22	Z22	X23	Y23	Z23	X24	Y24	Z24	X25	Y25	Z25	X26	Y26	Z26	X27	Y27	Z27	X28	Y28	Z28	X29	Y29	Z29	X30	Y30	Z30	X31	Y31	Z31	X32	Y32	Z32	X33	Y33	Z33	X34	Y34	Z34	X35	Y35	Z35	X36	Y36	Z36	X37	Y37	Z37	X38	Y38	Z38	X39	Y39	Z39	X40	Y40	Z40	X41	Y41	Z41	X42	Y42	Z42	X43	Y43	Z43	X44	Y44	Z44	X45	Y45	Z45	X46	Y46	Z46	X47	Y47	Z47	X48	Y48	Z48	X49	Y49	Z49	X50	Y50	Z50	X51	Y51	Z51	X52	Y52	Z52	X53	Y53	Z53	X54	Y54	Z54	X55	Y55	Z55	X56	Y56	Z56	X57	Y57	Z57	X58	Y58	Z58	X59	Y59	Z59	X60	Y60	Z60	X61	Y61	Z61

331	1.655	952.22	1575	-33.022	943.31	1576.1	66.338	928.25	1292.4	16.999	950.33	1157	23.298	908.35	894.36	-81.97	894.75	888.15	165.29	864	1338	181.12	859.93	1168.5	236.04	932.63	892.47	289.75	1023	809.17	255.18	1033.8	742.06	302.49	847.27	1333	-135.94	789.43	1166.3	-187.75	677.52	900.06	-222.94	682.32	774.38	-226.33	620.47	726.64	-244.56	812.3	549.09	200.06	764.27	399.9	51.459	711.26	307.69	149.04	562.66	220.15	131.6	636.99	262.36	141.67	429.51	86.49	139.83	894.04	729.06	-152.74	944.26	570.2	-107.49	970.99	671.95	-113.31	918.34	648.43	-131.92	987.25	440.03	-76.628	1020.8	345.54	-2.776	1004	255.43	-55.226	1010.1	260.2	5.4197	873.28	632.7	189.24	461.04	72.741	60.826	821.16	631.71	213.98	465.46	205.59	67.061	777.53	401.49	178.8	832.54	716.46	230.69	609.72	302.7	179.75	820.26	1494.7	-66.603	970.56	779.61	286.61	715.11	1027.5	-194.61	620.67	796.5	-202.86	440.31	208.29	145.35	479.74	28.081	92.99	403.43	244.71	103.94	851.9	1001	270.25	728.07	944.87	-16.365	809.27	1502.4	75.322	738.85	1186	31	740.6	1275.4	99.167	726.66	936.77	84.267	1004.6	176.41	15.206	955.43	434.41	51.589	957.21	62.67	-29.224	825.95	993.67	194.82	711.84	1011.2	-121.75	897.04	35.725	9.1984	1061.9	24.007	-31.743	1144.2	29.394	31.461	816.14	1394.5	12.428	1088.1	29.835	52.212	960.92	83.953	51.852
332	1.66	960.3	1575.9	-33.206	951.36	1577.3	66.149	936.3	1293.3	17.36	958.15	1157.8	23.756	916.14	895.72	-82.575	902.66	888.89	164.9	872.13	1339	181.34	868.11	1169.4	236.06	938.14	892.16	290.05	1027.1	807.07	255.89	1036.7	740.25	303.75	855.71	1333.9	-135.65	799.54	1166.6	-187.71	690.73	899.27	-224.35	697.3	773.74	-228	636.32	725.29	-246.89	825.76	549	200.17	781.03	398.89	51.24	726.67	307.78	148.82	576.74	222.23	131.76	651.71	263.43	141.63	442.8	90.539	141.48	901.07	729.9	-153.06	949.74	570.55	-107.94	977.46	671.95	-113.82	924.58	649.02	-132.36	991.34	439.63	-77.163	1024.3	344.85	-3.3926	1006.1	254.89	-55.667	1012.6	259.64	4.9483	885.28	633.72	188.91	474.54	75.577	63.011	833.16	631.73	213.78	479.26	208.79	67.51	793.5	401.08	178.96	843.08	716.79	230.32	625.16	303.97	180.05	828.43	1495.3	-66.615	974.02	778.57	287.32	726.4	1027.3	-195.6	635.19	794.95	-204.84	454.13	212.05	145.8	492.27	29.766	96.026	417.28	248.53	104.16	859.31	1002	270.12	735.83	945.74	-16.014	817.39	1503.4	75.271	746.77	1187.1	31.13	748.6	1276.6	99.419	734.49	937.49	84.496	1006	175.93	14.847	960.58	434.48	51.227	957.27	62.595	-29.413	833.76	994.82	194.46	722.87	1010.8	-122.74	897.01	35.793	9.0412	1061.9	24.018	-32.085	1144.3	28.934	31.319	824.25	1395.6	12.673	1088.1	29.752	52.127	961.1	84.026	51.731
333	1.665	968.39	1576.9	-33.371	959.43	1578.5	65.978	944.27	1294.3	17.767	965.92	1158.7	24.268	923.91	897.11	-83.163	910.52	889.81	164.56	880.13	1340	181.6	876.18	1170.4	236.13	943.53	891.95	290.38	1030.9	805.09	256.6	1039.3	738.55	304.97	864.05	1335	-135.32	809.6	1167	-187.63	704.09	898.56	-225.72	712.54	773.22	-229.62	652.48	724.02	-249.16	839.09	549.19	200.3	797.7	398.34	51.014	742.27	308.11	148.58	591.21	224.29	131.89	666.72	264.61	141.58	457.06	94.326	143.11	907.96	730.73	-153.34	954.93	570.86	-108.35	983.74	671.88	-114.29	930.62	649.6	-132.76	995.07	439.22	-77.686	1027.5	344.18	-3.9946	1007.9	254.38	-56.098	1014.8	259.1	4.4847	897.18	635.01	188.65	488.97	78.257	65.116	845.06	632.01	213.64	493.53	211.77	67.871	809.52	400.98	179.12	853.5	717.37	230	640.81	305.32	180.3	836.56	1496.1	-66.575	977.34	777.66	288.05	737.74	1027.2	-196.55	649.97	793.44	-206.8	468.39	215.5	146.16	506.05	31.568	98.946	431.4	251.85	104.27	866.63	1003	270.04	743.59	946.68	-15.754	825.49	1504.6	75.271	754.63	1188.3	31.263	756.51	1277.8	99.675	742.29	938.34	84.63	1007.2	175.48	14.487	965.28	434.49	50.872	957.28	62.526	-29.59	841.45	996.04	194.18	733.97	1010.5	-123.7	896.96	35.837	8.9022	1061.8	24.061	-32.396	1144.3	28.609	31.147	832.27	1396.7	12.964	1088	29.75	52.028	961.24	84.102	51.611
334	1.67	976.49	1577.9	-33.511	967.51	1579.8	65.833	952.16	1295.5	18.211	973.62	1159.7	24.825	931.64	898.51	-83.724	918.34	890.89	164.25	887.98	1341.2	181.91	884.15	1171.5	236.26	948.81	891.86	290.74	1034.7	803.25	257.32	1041.8	736.98	306.16	872.3	1336.1	-134.95	819.59	1167.6	-187.52	717.6	897.93	-227.06	728.02	772.82	-231.2	668.94	722.84	-251.37	852.3	549.67	200.43	814.27	398.22	50.795	758.06	308.69	148.34	606.06	226.3	131.99	682.01	265.91	141.52	472.25	97.804	144.71	914.74	731.55	-153.57	959.86	571.15	-108.71	989.84	671.75	-114.72	936.48	650.16	-133.11	998.48	438.8	-78.181	1030.4	343.53	-4.5576	1009.6	253.87	-56.504	1016.8	258.57	4.0477	908.98	636.54	188.47	504.29	80.754	67.117	856.85	632.55	213.55	508.23	214.49	68.154	825.6	401.19	179.28	863.8	718.17	229.74	656.66	306.74	180.5	844.62	1497	-66.483	980.54	776.9	288.81	749.12	1027.1	-197.46	664.99	792.01	-208.71	483.07	218.61	146.44	521.01	33.442	101.71	445.79	254.67	104.29	873.88	1004.1	270.01	751.37	947.72	-15.587	833.56	1506	75.325	762.45	1189.5	31.393	764.34	1279.1	99.926	750.07	939.29	84.675	1008.3	175.05	14.142	969.51	434.46	50.529	957.26	62.463	-29.752	849.02	997.34	193.97	745.13	1010.2	-124.63	896.9	35.865	8.7805	1061.7	24.124	-32.67	1144.3	28.386	30.957	840.17	1397.9	13.295	1087.9	29.805	51.926	961.36	84.176	51.497
335	1.675	984.59	1578.9	-33.618	975.61	1581.1	65.72	959.97	1296.7	18.684	981.28	1160.9	25.42	939.35	899.91	-84.25	926.13	892.14	163.98	895.71	1342.4	182.25	892	1172.6	236.43	953.97	891.88	291.15	1038.3	801.54	258.04	1044.2	735.53	307.31	880.44	1337.4	-134.55	829.5	1168.2	-187.38	731.24	897.39	-228.35	743.73	772.54	-232.72	685.69	721.75	-253.52	865.39	550.43	200.56	830.72	398.54	50.594	774.01	309.49	148.12	621.27	228.24	132.08	697.57	267.29	141.47	488.31	100.94	146.24	921.42	732.37	-153.75	964.56	571.42	-109.01	995.79	671.58	-115.08	942.17	650.71	-133.42	1001.6	438.39	-78.628	1033	342.9	-5.0626	1011.2	253.39	-56.872	1018.6	258.07	3.6522	920.68	638.32	188.38	520.44	83.042	68.997	868.54	633.34	213.5	523.36	216.93	68.371	841.7	401.71	179.44	873.97	719.19	229.54	672.66	308.2	180.66	852.64	1498.1	-66.341	983.63	776.28	289.6	760.53	1027.1	-198.33	680.24	790.65	-210.58	498.15	221.35	146.66	537.1	35.344	104.29	460.44	256.96	104.24	881.04	1005.3	270.04	759.15	948.83	-15.511	841.6	1507.5	75.432	770.22	1190.7	31.513	772.09	1280.3	100.16	757.82	940.35	84.638	1009.3	174.64	13.824	973.26	434.41	50.201	957.22	62.408	-29.896	856.46	998.69	193.84	756.35	1010	-125.52	896.84	35.884	8.6749	1061.6	24.197	-32.906	1144.4	28.24	30.76	847.98	1399.2	13.662	1087.8	29.894	51.827	961.45	84.246	51.394
336	1.68	992.69	1580	-33.687	983.72	1582.6	65.646	967.71	1298	19.178	988.91	1162.2	26.044	947.04	901.3	-84.731	933.91	893.55	163.74	903.3	1343.6	182.63	899.73	1173.8	236.66	959.01	892	291.59	1041.7	799.97	258.77	1046.5	734.2	308.43	888.5	1338.8	-134.13	839.33	1169	-187.22	745.02	896.95	-229.6	759.66	772.41	-234.17	702.72	720.79	-255.59	878.35	551.46	200.7	847.05	399.26	50.42	790.12	310.52	147.93	636.81	230.09	132.17	713.38	268.75	141.44	505.16	103.69	147.71	927.99	733.19	-153.87	969.06	571.68	-109.25	1001.6	671.37	-115.37	947.72	651.25	-133.66	1004.5	438	-79.015	1035.4	342.31	-5.4962	1012.6	252.93	-57.191	1020.2	257.6	3.3092	932.28	640.33	188.36	537.36	85.101	70.742	880.12	634.37	213.5	538.88	219.06	68.531	857.83	402.54	179.62	884.03	720.41	229.39	688.82	309.71	180.78	860.6	1499.3	-66.151	986.63	775.82	290.42	771.98	1027.2	-199.15	695.71	789.37	-212.39	513.61	223.68	146.84	554.23	37.235	106.67	475.34	258.72	104.14	888.1	1006.5	270.11	766.95	950.02	-15.52	849.61	1509.1	75.591	777.96	1192	31.617	779.77	1281.6	100.39	765.56	941.51	84.526	1010.1	174.26	13.543	976.54	434.34	49.893	957.16	62.361	-30.019	863.76	1000.1	193.79	767.61	1009.8	-126.38	896.78	35.902	8.5841	1061.5	24.275	-33.104	1144.4	28.149	30.564	855.68	1400.5	14.061	1087.8	30.004	51.737	961.53	84.312	51.304
337	1.685	1000.8	1581.1	-33.714	991.85	1584	65.616	975.38	1299.5	19.681	996.51	1163.6	26.689	954.72	902.68	-85.159	941.67	895.1	163.54	910.77	1344.9	183.04	907.32	1175.1	236.93	963.96	892.23	292.07	1045.1	798.55	259.52	1048.7	733	309.52	896.46	1340.2	-133.69	849.08	1169.9	-187.05	758.91	896.6	-230.8	775.8	772.42	-235.54	720.02	719.95	-257.58	891.21	552.73	200.82	863.28	400.34	50.282	806.35	311.74	147.76	652.68	231.83	132.27	729.41	270.26	141.42	522.73	106.05	149.08	934.49	733.99	-153.92	973.41	571.94	-109.44	1007.3	671.15	-115.58	953.16	651.8	-133.85	1007.2	437.64	-79.333	1037.6	341.75	-5.8505	1013.8	252.5	-57.457	1021.7	257.16	3.026	943.78	642.55	188.43	555	86.914	72.345	891.61	635.63	213.54	554.78	220.86	68.643	873.96	403.65	179.81	893.96	721.83	229.29	705.1	311.23	180.88	868.51	1500.6	-65.915	989.54	775.5	291.27	783.45	1027.4	-199.92	711.39	788.2	-214.13	529.43	225.59	146.99	572.34	39.076	108.84	490.47	259.93	104	895.07	1007.7	270.23	774.76	951.27	-15.606	857.59	1510.9	75.802	785.65	1193.3	31.701	787.39	1282.9	100.59	773.29	942.76	84.351	1010.9	173.91	13.307	979.39	434.25	49.609	957.11	62.324	-30.122	870.92	1001.5	193.81	778.92	1009.8	-127.19	896.72	35.924	8.507	1061.4	24.35	-33.264	1144.4	28.093	30.374	863.3	1401.9	14.487	1087.7	30.12	51.66	961.6	84.374	51.229
338	1.69	1008.9	1582.3	-33.692	999.98	1585.5	65.636	982.99	1301	20.187	1004.1	1165.1	27.347	962.39	904.04	-85.528	949.42	896.79	163.37	918.12	1346.2	183.46	914.77	1176.4	237.24	968.8	892.57	292.59	1048.3	797.27	260.29	1050.8	731.93	310.59	904.34	1341.7	-133.25	858.74	1170.9	-186.89	772.93	896.36	-231.93	792.14	772.59	-236.84	737.57	719.25	-259.48	903.97	554.23	200.94	879.41	401.76	50.186	822.71	313.15	147.62	668.85	233.43	132.37	745.66	271.8	141.42	540.97	108	150.37	940.93	734.79	-153.9	977.62	572.2	-109.57	1012.9	670.92	-115.68	958.52	652.34	-133.97	1009.7	437.31	-79.575	1039.5	341.24	-6.1223	1015	252.1	-57.665	1023	256.75	2.806	955.2	644.97	188.57	573.31	88.468	73.805	902.99	637.1	213.61	571.02	222.31	68.717	890.08	405.05	180.01	903.79	723.41	229.24	721.49	312.75	180.96	876.36	1502	-65.636	992.39	775.33	292.17	794.95	1027.6	-200.63	727.28	787.13	-215.8	545.58	227.07	147.11	591.33	40.839	110.79	505.85	260.6	103.84	901.95	1009	270.39	782.57	952.59	-15.762	865.53	1512.8	76.064	793.32	1194.7	31.758	794.94	1284.2	100.77	781.02	944.09	84.125	1011.6	173.59	13.12	981.85	434.16	49.357	957.06	62.299	-30.203	877.94	1003	193.91	790.28	1009.8	-127.95	896.67	35.955	8.4428	1061.4	24.42	-33.387	1144.5	28.058	30.196	870.83	1403.4	14.936	1087.6	30.234	51.598	961.67	84.434	51.167
